<svg width="34" height="32" viewBox="0 0 34 32" fill="none" xmlns="http://www.w3.org/2000/svg">
<path d="M29.75 21.3333V10.6667C29.7495 10.199 29.6183 9.73975 29.3697 9.33488C29.121 8.93002 28.7636 8.59382 28.3333 8.36L18.4167 3.02667C17.9859 2.79262 17.4974 2.6694 17 2.6694C16.5026 2.6694 16.0141 2.79262 15.5833 3.02667L5.66667 8.36C5.23637 8.59382 4.87897 8.93002 4.63032 9.33488C4.38167 9.73975 4.25051 10.199 4.25 10.6667V21.3333C4.25051 21.801 4.38167 22.2603 4.63032 22.6651C4.87897 23.07 5.23637 23.4062 5.66667 23.64L15.5833 28.9733C16.0141 29.2074 16.5026 29.3306 17 29.3306C17.4974 29.3306 17.9859 29.2074 18.4167 28.9733L28.3333 23.64C28.7636 23.4062 29.121 23.07 29.3697 22.6651C29.6183 22.2603 29.7495 21.801 29.75 21.3333Z" stroke="white" stroke-width="2" stroke-linecap="round" stroke-linejoin="round"/>
<path d="M10.625 5.61334L17 9.08001L23.375 5.61334" stroke="white" stroke-width="2" stroke-linecap="round" stroke-linejoin="round"/>
<path d="M10.625 26.3867V19.4667L4.25 16" stroke="white" stroke-width="2" stroke-linecap="round" stroke-linejoin="round"/>
<path d="M29.75 16L23.375 19.4667V26.3867" stroke="white" stroke-width="2" stroke-linecap="round" stroke-linejoin="round"/>
<path d="M4.6325 9.28L17 16.0133L29.3675 9.28" stroke="white" stroke-width="2" stroke-linecap="round" stroke-linejoin="round"/>
<path d="M17 29.44V16" stroke="white" stroke-width="2" stroke-linecap="round" stroke-linejoin="round"/>
</svg>
